<svg width="16" height="14" viewBox="0 0 16 14" fill="none" xmlns="http://www.w3.org/2000/svg">
<g id="Group">
<path id="Vector" d="M10.726 1.32346C10.8515 1.40902 10.9378 1.54093 10.966 1.69016C10.9942 1.83939 10.962 1.99371 10.8765 2.11918C10.7909 2.24465 10.659 2.33099 10.5098 2.35921C10.3605 2.38742 10.2062 2.3552 10.0807 2.26963C9.02442 1.55155 7.75818 1.20763 6.48374 1.29268C5.2093 1.37773 3.99998 1.88685 3.04846 2.73893C2.09693 3.591 1.45794 4.73701 1.23329 5.99438C1.00864 7.25174 1.21126 8.54812 1.80885 9.67697C2.40645 10.8058 3.36465 11.7022 4.53079 12.2233C5.69693 12.7444 7.00392 12.8603 8.24353 12.5524C9.48315 12.2445 10.5841 11.5306 11.3709 10.5245C12.1577 9.51832 12.5852 8.27779 12.5852 7.00051C12.5852 6.84879 12.6454 6.70329 12.7527 6.59601C12.86 6.48873 13.0055 6.42846 13.1572 6.42846C13.3089 6.42846 13.4545 6.48873 13.5617 6.59601C13.669 6.70329 13.7293 6.84879 13.7293 7.00051C13.7291 8.53326 13.216 10.0219 12.2717 11.2292C11.3274 12.4365 10.0062 13.293 8.51859 13.6623C7.03099 14.0316 5.46259 13.8924 4.06328 13.2669C2.66397 12.6414 1.51424 11.5656 0.797288 10.2109C0.0803331 8.85614 -0.162603 7.30044 0.107184 5.79162C0.376972 4.2828 1.14396 2.90767 2.28595 1.88533C3.42794 0.862989 4.87924 0.252252 6.4086 0.150425C7.93796 0.048598 9.45741 0.461539 10.7249 1.32346" fill="#645E5E"/>
<path id="Vector_2" d="M10.0324 8.81372C9.9692 8.85626 9.89809 8.88573 9.8233 8.90041C9.74851 8.91508 9.67154 8.91466 9.59692 8.89917C9.52229 8.88368 9.45152 8.85344 9.38874 8.81022C9.32597 8.76699 9.27247 8.71166 9.23137 8.64747C9.19028 8.58328 9.16243 8.51153 9.14946 8.43642C9.13649 8.36132 9.13865 8.28438 9.15583 8.21013C9.17301 8.13587 9.20485 8.0658 9.24949 8.00402C9.29413 7.94224 9.35066 7.89001 9.41576 7.85039L13.3995 5.30246C13.4628 5.25992 13.5339 5.23045 13.6087 5.21578C13.6835 5.20111 13.7604 5.20153 13.8351 5.21701C13.9097 5.2325 13.9805 5.26275 14.0432 5.30597C14.106 5.34919 14.1595 5.40452 14.2006 5.46872C14.2417 5.53291 14.2695 5.60466 14.2825 5.67976C14.2955 5.75487 14.2933 5.8318 14.2761 5.90606C14.259 5.98031 14.2271 6.05039 14.1825 6.11216C14.1379 6.17394 14.0813 6.22618 14.0162 6.2658L10.0324 8.81372Z" fill="#645E5E"/>
<path id="Vector_3" d="M15.957 9.41908C16.0138 9.55677 16.0147 9.71118 15.9594 9.8495C15.9042 9.98782 15.7971 10.0991 15.6611 10.1598C15.5251 10.2204 15.3707 10.2256 15.2309 10.1743C15.0911 10.1229 14.9768 10.019 14.9124 9.88473L13.186 6.01765C13.1553 5.94899 13.1385 5.87496 13.1364 5.7998C13.1344 5.72463 13.1472 5.6498 13.1741 5.57958C13.2009 5.50935 13.2414 5.44511 13.2931 5.39052C13.3448 5.33592 13.4068 5.29205 13.4754 5.2614C13.5441 5.23075 13.6181 5.21392 13.6933 5.21188C13.7684 5.20984 13.8433 5.22262 13.9135 5.2495C13.9837 5.27638 14.048 5.31683 14.1026 5.36853C14.1571 5.42024 14.201 5.48219 14.2317 5.55086L15.957 9.41908Z" fill="#645E5E"/>
</g>
</svg>
