<svg width="34" height="34" viewBox="0 0 34 34" fill="none" xmlns="http://www.w3.org/2000/svg">
<g id="solar:bell-linear">
<g id="Group">
<path id="Vector" d="M26.5626 13.7558V12.757C26.5626 7.27592 22.2786 2.83325 17.0001 2.83325C11.7216 2.83325 7.43759 7.27592 7.43759 12.757V13.7558C7.43929 14.948 7.09907 16.1156 6.45725 17.1203L4.88759 19.5641C3.45534 21.7953 4.549 24.8284 7.04092 25.5339C13.5523 27.3779 20.4478 27.3779 26.9593 25.5339C29.4512 24.8284 30.5448 21.7953 29.1126 19.5655L27.5429 17.1218C26.9006 16.1172 26.5599 14.9495 26.5612 13.7572L26.5626 13.7558Z" stroke="#7E4A18" stroke-width="1.5"/>
<path id="Vector_2" d="M10.625 26.9165C11.5529 29.3928 14.0562 31.1665 17 31.1665C19.9438 31.1665 22.4471 29.3928 23.375 26.9165" stroke="#7E4A18" stroke-width="1.5" stroke-linecap="round"/>
</g>
</g>
</svg>
