<svg width="104" height="42" viewBox="0 0 104 42" fill="none" xmlns="http://www.w3.org/2000/svg">
<g id="&#236;&#139;&#164;&#235;&#161;&#157;" clip-path="url(#clip0_6461_492)">
<g id="Group">
<path id="Vector" d="M39.2982 30.4803L12.0471 41.878C11.2754 42.2015 10.4019 41.8727 10.091 41.1461L0.374964 18.3773C0.064135 17.6507 0.439273 16.7968 1.20563 16.4785L28.4514 5.0862C29.2231 4.76267 30.0966 5.0915 30.4075 5.81811L40.1236 28.5816C40.4344 29.3082 40.0592 30.1621 39.2929 30.4803H39.2982Z" fill="#3F2506"/>
<path id="Vector_2" opacity="0.4" d="M33.9822 29.4036L12.1973 41.7453C11.4096 42.1908 10.4074 41.8832 10.0644 41.0823L0.26794 18.1279C-0.0160931 17.4596 0.26794 16.6747 0.927112 16.2981L22.7119 3.95642C23.4997 3.51091 24.5019 3.81852 24.8449 4.61938L34.6467 27.5738C34.9307 28.2421 34.6467 29.027 33.9875 29.4036H33.9822Z" fill="#8E4B13"/>
<path id="Vector_3" opacity="0.6" d="M28.4519 27.5048L12.471 41.6021C11.6939 42.2862 10.472 42.0317 10.0755 41.0982L0.166443 17.8892C-0.0800768 17.3111 0.0753376 16.6429 0.557658 16.2186L16.5386 2.12663C17.3156 1.44245 18.5375 1.69703 18.9341 2.63048L28.8431 25.8395C29.0896 26.4176 28.9342 27.0858 28.4519 27.5101V27.5048Z" fill="#B57E50"/>
<path id="Vector_4" opacity="0.9" d="M22.9369 25.5638L12.7171 41.3105C12.0579 42.3235 10.5252 42.1909 10.0482 41.0824L0.117781 17.8257C-0.0751476 17.3696 -0.0322746 16.8498 0.241041 16.4308L10.4609 0.689458C11.1201 -0.323549 12.6528 -0.190957 13.1297 0.917517L23.0602 24.1742C23.2531 24.6304 23.2102 25.1501 22.9369 25.5691V25.5638Z" fill="#E2C8B0"/>
</g>
<g id="Group_2">
<path id="Vector_5" d="M37.8812 32.9899C34.4828 32.9899 29.9515 30.668 29.3822 27.8339C28.9337 25.6145 28.5657 22.8942 30.193 21.0675C30.7336 20.2878 30.1585 19.5765 29.9055 18.6375C27.9159 11.4442 34.8451 6.36793 41.6592 7.6939C43.3211 8.01259 44.9887 8.41095 46.1272 9.66864C47.3751 11.0914 47.5131 13.2653 47.5936 15.1091C47.6856 16.3156 47.2025 17.3399 46.6448 18.3245C46.3227 19.309 47.2888 20.1285 47.5016 21.0561C49.5889 27.7315 44.9484 33.1777 37.9905 32.9956H37.8812V32.9899Z" fill="white"/>
<g id="Group_3">
<path id="Vector_6" d="M37.559 29.7516C36.7597 29.7516 35.9949 29.6606 35.2531 29.4785C34.5113 29.2964 33.8155 29.0004 33.1657 28.5964C33.0565 28.5053 32.9415 28.4029 32.8322 28.2948C32.7229 28.1866 32.6367 28.0671 32.5792 27.9362C32.3952 27.4411 32.2687 26.8379 32.2054 26.1209C32.1422 25.4038 32.1192 24.6811 32.1364 23.9469C32.1364 23.816 32.1939 23.725 32.3032 23.6738C32.4124 23.6226 32.5447 23.5884 32.6942 23.5884C32.8782 23.5884 33.0047 23.6112 33.068 23.6567C33.1312 23.7022 33.2002 23.7876 33.275 23.9185C33.6832 25.2957 34.287 26.4054 35.0978 27.2476C35.9029 28.0899 36.8459 28.511 37.9213 28.511C38.5135 28.511 39.0023 28.3801 39.3818 28.1127C39.7614 27.8452 40.0546 27.5094 40.2559 27.094C40.4572 26.6786 40.5607 26.2631 40.5607 25.842C40.5607 25.2558 40.4457 24.7607 40.2156 24.3567C39.9856 23.9526 39.6349 23.5884 39.1748 23.2583C38.7091 22.9283 38.1168 22.5697 37.398 22.1828C36.6217 21.7446 35.8684 21.2779 35.1438 20.7942C34.4193 20.3105 33.827 19.7186 33.367 19.0186C32.9012 18.3243 32.6712 17.4479 32.6712 16.4065C32.6712 15.3651 32.953 14.3863 33.5165 13.6009C34.08 12.8099 34.8563 12.1953 35.8396 11.7571C36.8229 11.3189 37.927 11.0969 39.1461 11.0969C39.8476 11.0969 40.5204 11.1709 41.1644 11.3189C41.8027 11.4668 42.3203 11.6148 42.7055 11.7571C42.9298 11.8481 43.0908 11.9506 43.1943 12.0587C43.2978 12.1668 43.3841 12.3603 43.4588 12.6392C43.5508 13.0261 43.6313 13.4928 43.6946 14.0448C43.7579 14.5968 43.7924 15.2001 43.7924 15.8602C43.7924 16.0992 43.6256 16.2187 43.2921 16.2187C43.1253 16.2187 42.9701 16.1789 42.8321 16.0935C42.694 16.0082 42.602 15.9057 42.5675 15.7748C42.2513 14.6765 41.7912 13.8399 41.1759 13.2708C40.5664 12.7018 39.8131 12.4172 38.9218 12.4172C38.364 12.4172 37.8925 12.5083 37.5015 12.6904C37.1105 12.8725 36.8229 13.1513 36.6274 13.5155C36.4319 13.8855 36.3342 14.3407 36.3342 14.8927C36.3342 15.3309 36.4894 15.7407 36.7942 16.1163C37.099 16.4919 37.5417 16.8732 38.1168 17.2602C38.6918 17.6471 39.3473 18.0569 40.0891 18.5008C41.0897 19.0869 41.889 19.6674 42.4813 20.2365C43.0736 20.8056 43.5048 21.4088 43.7751 22.0405C44.0454 22.6722 44.1776 23.4006 44.1776 24.2258C44.1776 25.4721 43.9016 26.5078 43.3553 27.333C42.809 28.1582 42.0385 28.7671 41.0494 29.1655C40.0604 29.5581 38.8931 29.7573 37.559 29.7573V29.7516Z" fill="#472209"/>
<path id="Vector_7" d="M46.2367 29.4505C46.1275 29.4505 46.024 29.4163 45.932 29.3537C45.8399 29.2911 45.7939 29.2001 45.7939 29.0919C45.7939 28.944 45.8399 28.8245 45.932 28.7334C46.024 28.6423 46.1447 28.5797 46.2942 28.5399C46.7773 28.4318 47.1165 28.3066 47.3063 28.17C47.5018 28.0334 47.5996 27.8172 47.5996 27.5212V21.58C47.5996 20.954 47.5018 20.5101 47.3063 20.2483C47.1108 19.9808 46.8118 19.8215 46.4035 19.7646C46.2942 19.7475 46.208 19.6906 46.1505 19.5995C46.093 19.5085 46.07 19.4004 46.07 19.2695C46.07 18.9963 46.1735 18.837 46.3747 18.8028C47.3408 18.6207 48.1976 18.3646 48.9451 18.0345C49.6984 17.7045 50.2735 17.4484 50.6817 17.2663C50.975 17.1183 51.1648 17.0443 51.2395 17.0443C51.481 17.0443 51.6018 17.1525 51.6018 17.3744C51.5845 17.6874 51.5385 18.0744 51.4753 18.541C51.412 19.0077 51.3545 19.4914 51.3085 19.9865C51.2625 20.4816 51.2395 20.9597 51.2395 21.4149V27.4985C51.2395 27.7546 51.3373 27.9594 51.5328 28.1017C51.7283 28.2497 52.0733 28.3976 52.5736 28.5399C52.7231 28.5968 52.8439 28.6594 52.9359 28.7334C53.0279 28.8074 53.0739 28.9155 53.0739 29.0635C53.0739 29.3025 52.9359 29.422 52.6541 29.422C52.3033 29.422 51.9296 29.4106 51.5443 29.3935C51.1533 29.3765 50.7795 29.3594 50.4172 29.3366C50.0549 29.3196 49.7099 29.3082 49.3764 29.3082C49.0601 29.3082 48.7324 29.3196 48.3873 29.3366C48.0423 29.3537 47.6916 29.3765 47.3293 29.4049C46.967 29.4334 46.599 29.4448 46.231 29.4448L46.2367 29.4505ZM49.2902 15.798C48.7151 15.798 48.2091 15.5875 47.7778 15.1663C47.3408 14.7452 47.1223 14.2387 47.1223 13.6526C47.1223 13.0266 47.3408 12.5087 47.7778 12.0819C48.2148 11.6608 48.7209 11.4502 49.2902 11.4502C49.9399 11.4502 50.4747 11.6608 50.9003 12.0819C51.3258 12.503 51.5385 13.0266 51.5385 13.6526C51.5385 14.2387 51.3258 14.7452 50.9003 15.1663C50.4747 15.5875 49.9342 15.798 49.2902 15.798Z" fill="#472209"/>
<path id="Vector_8" d="M54.4074 29.4503C54.2406 29.4503 54.1084 29.4161 54.0049 29.3535C53.9014 29.2909 53.8496 29.1942 53.8496 29.0633C53.8496 28.9153 53.9071 28.8015 54.0164 28.7218C54.1256 28.6421 54.2866 28.5682 54.4879 28.5169C54.7639 28.4259 55.0112 28.3235 55.2239 28.2153C55.4367 28.1072 55.546 27.8568 55.546 27.4698V14.2328C55.546 13.7377 55.477 13.3052 55.339 12.941C55.2009 12.5768 54.8962 12.3435 54.4361 12.2524C54.2521 12.2183 54.1601 12.076 54.1601 11.837C54.1601 11.598 54.2406 11.4614 54.4074 11.4215C54.8904 11.3305 55.408 11.1996 55.9657 11.0232C56.5235 10.8468 57.0526 10.6647 57.5528 10.4712C58.0531 10.2777 58.4441 10.1354 58.7202 10.0443C58.8697 9.98744 58.9904 9.95898 59.0824 9.95898C59.1917 9.95898 59.2664 9.99313 59.3067 10.0557C59.3412 10.1183 59.3642 10.198 59.3642 10.2891C59.3642 10.4199 59.3412 10.659 59.2952 11.0061C59.2492 11.3533 59.2147 11.7516 59.1974 12.1898V27.4072C59.1974 27.8113 59.3067 28.0617 59.5195 28.1641C59.7322 28.2665 59.9795 28.3633 60.2555 28.4543C60.4568 28.5283 60.6178 28.6023 60.727 28.6763C60.8363 28.7503 60.8938 28.8584 60.8938 29.0064C60.8938 29.1373 60.842 29.234 60.7385 29.2966C60.635 29.3592 60.5028 29.3933 60.336 29.3933C59.9852 29.3933 59.6345 29.382 59.2952 29.3649C58.9502 29.3478 58.6166 29.3307 58.2946 29.3251C57.9726 29.3137 57.6391 29.3137 57.3056 29.3137C56.9893 29.3137 56.6788 29.3251 56.374 29.3421C56.0692 29.3592 55.7587 29.382 55.4425 29.4104C55.1262 29.4389 54.7869 29.4503 54.4131 29.4503H54.4074Z" fill="#472209"/>
<path id="Vector_9" d="M62.3312 29.4503C62.1645 29.4503 62.0322 29.4161 61.9287 29.3535C61.8252 29.2909 61.7734 29.1942 61.7734 29.0633C61.7734 28.9153 61.8309 28.8015 61.9402 28.7218C62.0495 28.6421 62.2105 28.5682 62.4117 28.5169C62.6877 28.4259 62.935 28.3235 63.1478 28.2153C63.3605 28.1072 63.4698 27.8568 63.4698 27.4698V14.2328C63.4698 13.7377 63.4008 13.3052 63.2628 12.941C63.1248 12.5768 62.82 12.3435 62.36 12.2524C62.176 12.2183 62.084 12.076 62.084 11.837C62.084 11.598 62.1645 11.4614 62.3312 11.4215C62.8143 11.3305 63.3318 11.1996 63.8896 11.0232C64.4473 10.8468 64.9764 10.6647 65.4767 10.4712C65.9769 10.2777 66.368 10.1354 66.644 10.0443C66.7935 9.98744 66.9143 9.95898 67.0063 9.95898C67.1155 9.95898 67.1903 9.99313 67.2305 10.0557C67.265 10.1183 67.288 10.198 67.288 10.2891C67.288 10.4199 67.265 10.659 67.219 11.0061C67.173 11.3533 67.1385 11.7516 67.1213 12.1898V27.4072C67.1213 27.8113 67.2305 28.0617 67.4433 28.1641C67.656 28.2665 67.9033 28.3633 68.1793 28.4543C68.3806 28.5283 68.5416 28.6023 68.6509 28.6763C68.7601 28.7503 68.8176 28.8584 68.8176 29.0064C68.8176 29.1373 68.7659 29.234 68.6624 29.2966C68.5588 29.3592 68.4266 29.3933 68.2598 29.3933C67.9091 29.3933 67.5583 29.382 67.219 29.3649C66.874 29.3478 66.5405 29.3307 66.2185 29.3251C65.8964 29.3137 65.5629 29.3137 65.2294 29.3137C64.9131 29.3137 64.6026 29.3251 64.2978 29.3421C63.9931 29.3592 63.6826 29.382 63.3663 29.4104C63.05 29.4389 62.7107 29.4503 62.337 29.4503H62.3312Z" fill="#472209"/>
<path id="Vector_10" d="M75.4023 29.7519C74.2925 29.7519 73.292 29.5015 72.4007 29.0063C71.5094 28.5112 70.8021 27.8283 70.273 26.9576C69.744 26.0869 69.4795 25.1024 69.4795 23.9984C69.4795 23.1163 69.6463 22.2854 69.9798 21.4944C70.3133 20.7034 70.7791 20.0091 71.3714 19.4058C71.9636 18.8026 72.6594 18.3246 73.4587 17.9774C74.258 17.6303 75.1091 17.4539 76.0176 17.4539C77.1677 17.4539 78.2028 17.7213 79.1343 18.2506C80.0601 18.7855 80.7962 19.4855 81.3425 20.3562C81.8887 21.2269 82.1648 22.1773 82.1648 23.2016C82.1648 24.374 81.9117 25.4609 81.4 26.4625C80.8882 27.4641 80.1406 28.2608 79.1458 28.8584C78.151 29.4559 76.9089 29.7519 75.4081 29.7519H75.4023ZM75.9544 28.5397C76.3454 28.5397 76.6789 28.46 76.9664 28.3064C77.254 28.1527 77.4897 27.9194 77.6737 27.6064C77.898 27.2422 78.0475 26.7414 78.1338 26.1097C78.22 25.478 78.2603 24.7268 78.2603 23.8675C78.2603 22.8773 78.151 21.9895 77.9267 21.2098C77.7025 20.4302 77.392 19.8099 76.9952 19.3546C76.5984 18.8937 76.1269 18.666 75.5921 18.666C75.2931 18.666 75.0286 18.7172 74.7871 18.8197C74.5455 18.9221 74.3328 19.0644 74.1488 19.2465C73.8325 19.6164 73.614 20.1343 73.4932 20.8172C73.3725 21.4944 73.315 22.3309 73.315 23.3212C73.315 24.2032 73.43 25.0398 73.66 25.8365C73.89 26.6333 74.2063 27.2877 74.603 27.7885C74.9998 28.295 75.4484 28.5454 75.9544 28.5454V28.5397Z" fill="#472209"/>
<path id="Vector_11" d="M83.3781 29.4504C83.0101 29.4504 82.8203 29.3195 82.8203 29.0634C82.8203 28.9155 82.8778 28.8017 82.9871 28.722C83.0963 28.6423 83.2573 28.5683 83.4586 28.5171C83.7346 28.4261 83.9819 28.3236 84.1946 28.2155C84.4074 28.1074 84.5167 27.8513 84.5167 27.4472V14.2387C84.5167 13.7265 84.4534 13.2883 84.3212 12.9298C84.1889 12.5713 83.8956 12.3493 83.4298 12.2583C83.2286 12.2241 83.1251 12.0819 83.1251 11.8428C83.1251 11.6038 83.2171 11.4672 83.4011 11.4274C83.8669 11.3363 84.3672 11.2055 84.9134 11.029C85.4597 10.8526 85.983 10.6705 86.4833 10.477C86.9836 10.2835 87.3746 10.1413 87.6506 10.0502C87.8001 9.9933 87.9209 9.96484 88.0129 9.96484C88.1221 9.96484 88.1969 9.99899 88.2371 10.0616C88.2716 10.1242 88.2946 10.2039 88.2946 10.2949C88.2946 10.4429 88.2716 10.6876 88.2256 11.0404C88.1796 11.3876 88.1451 11.7745 88.1279 12.1957L88.1566 22.4848C88.1566 22.7067 88.2429 22.8149 88.4097 22.8149C88.4672 22.8149 88.5362 22.7921 88.6167 22.7466C88.7029 22.701 88.7777 22.6498 88.8524 22.5929C89.5367 22.0067 90.152 21.4092 90.6868 20.806C91.2216 20.2027 91.5838 19.7589 91.7736 19.4857C91.8484 19.3776 91.9059 19.2865 91.9519 19.2125C91.9979 19.1385 92.0209 19.0759 92.0209 19.019C92.0209 18.928 91.9461 18.8312 91.7966 18.7288C91.6471 18.6264 91.4286 18.5581 91.1296 18.5239C90.9053 18.4898 90.796 18.3873 90.796 18.2223C90.796 18.0573 90.865 17.9491 91.0031 17.9036C91.1411 17.8581 91.2791 17.8353 91.4056 17.8353H92.7684C93.1019 17.8353 93.539 17.824 94.0737 17.7955C94.6085 17.767 95.1376 17.7272 95.6608 17.6703C96.1784 17.6134 96.5521 17.5849 96.7707 17.5849C96.9719 17.5849 97.0754 17.6874 97.0754 17.8866C97.0754 18.0345 97.0179 18.1597 96.9087 18.2565C96.7994 18.3589 96.6384 18.4272 96.4371 18.4613C96.1209 18.5353 95.7528 18.6605 95.3273 18.8483C94.9018 19.0304 94.4763 19.241 94.0507 19.48C93.7345 19.645 93.3952 19.8499 93.0387 20.1003C92.6764 20.3507 92.3256 20.6068 91.9806 20.8856C91.6356 21.1645 91.3251 21.4263 91.0491 21.6824C90.9571 21.7734 90.911 21.8759 90.911 21.984C90.911 22.0409 90.9283 22.0921 90.9686 22.1376C91.0031 22.1832 91.0433 22.2344 91.0778 22.2913C91.5206 22.8604 91.9461 23.4181 92.3544 23.9701C92.7627 24.5221 93.1709 25.0457 93.5792 25.5522C93.9875 26.0587 94.4015 26.5595 94.8328 27.0546C95.1491 27.3846 95.5286 27.6862 95.9714 27.9651C96.4141 28.244 96.7879 28.4318 97.0812 28.5456C97.2307 28.6025 97.3917 28.6651 97.5699 28.7391C97.7482 28.813 97.8345 28.9212 97.8345 29.0691C97.8345 29.3252 97.6275 29.4561 97.2249 29.4561C96.1151 29.4561 95.0225 29.4447 93.9587 29.4163C92.8949 29.3878 91.8944 29.3764 90.9686 29.3764C90.5948 29.3764 90.4108 29.2455 90.4108 28.9895C90.4108 28.8415 90.4683 28.7334 90.5775 28.6594C90.6868 28.5854 90.8363 28.5114 91.0203 28.4374C91.1871 28.3805 91.3021 28.3179 91.3653 28.244C91.4286 28.17 91.4746 28.0903 91.4918 27.9936C91.4918 27.9196 91.4573 27.8342 91.3941 27.7318C91.3308 27.6293 91.2503 27.5155 91.1583 27.3903L88.4614 23.7026C88.4039 23.6685 88.3579 23.6457 88.3234 23.6457C88.2141 23.6628 88.1566 23.7311 88.1566 23.8392V27.47C88.1566 27.783 88.2256 28.0049 88.3636 28.1415C88.5017 28.2781 88.7087 28.3919 88.9904 28.483C89.1399 28.5399 89.2722 28.6082 89.393 28.6878C89.5137 28.7732 89.5712 28.887 89.5712 29.0293C89.5712 29.1602 89.5195 29.2569 89.416 29.3309C89.3125 29.4049 89.1974 29.439 89.0709 29.439C88.7029 29.439 88.3636 29.4277 88.0589 29.3992C87.7541 29.3707 87.4608 29.348 87.1848 29.3309C86.9088 29.3138 86.5983 29.3025 86.2648 29.3025C85.9485 29.3025 85.638 29.3138 85.3332 29.3309C85.0284 29.348 84.7179 29.3707 84.4017 29.3992C84.0854 29.4277 83.7461 29.439 83.3723 29.439L83.3781 29.4504Z" fill="#472209"/>
</g>
</g>
</g>
<defs>
<clipPath id="clip0_6461_492">
<rect width="104" height="42" fill="white"/>
</clipPath>
</defs>
</svg>
