<svg width="29" height="31" viewBox="0 0 29 31" fill="none" xmlns="http://www.w3.org/2000/svg">
<g id="Frame 2588">
<g id="Group">
<path id="Vector" d="M24.2633 22.7848L11.5556 27.4995C10.9939 27.7079 10.3748 27.6823 9.83453 27.4285C9.29422 27.1747 8.87693 26.7133 8.67446 26.1459L3.32928 11.1712C3.22889 10.8902 3.18427 10.5917 3.19798 10.2926C3.21169 9.99344 3.28346 9.69963 3.40918 9.42792C3.53491 9.1562 3.71213 8.9119 3.93072 8.70897C4.14931 8.50604 4.405 8.34845 4.68317 8.24521L17.3909 3.53044C17.9525 3.32209 18.5716 3.34765 19.1119 3.60149C19.6523 3.85534 20.0695 4.31668 20.272 4.88405L22.9446 12.3714" stroke="#645E5E" stroke-width="1.5" stroke-linecap="round"/>
<path id="Vector_2" d="M8.32627 11.7364L16.7959 8.59272M9.85262 16.014L18.3228 12.8713M11.3799 20.291L16.6736 18.3273" stroke="#645E5E" stroke-width="1.5" stroke-linecap="round"/>
</g>
<path id="Vector_3" d="M28.5303 13.2988C28.6812 13.1056 28.646 12.8189 28.4539 12.6769L27.2951 11.7715C27.1108 11.6195 26.8241 11.6547 26.6732 11.8478L25.9607 12.7546L27.8178 14.2056M21.2719 18.7612L21.475 20.4152L23.129 20.2121L27.4077 14.7305L25.5506 13.2796L21.2719 18.7612Z" fill="#645E5E"/>
</g>
</svg>
