<svg width="34" height="34" viewBox="0 0 34 34" fill="none" xmlns="http://www.w3.org/2000/svg">
<g id="iconoir:profile-circle">
<g id="Group">
<path id="Vector" d="M17.0002 2.83325C9.17591 2.83325 2.8335 9.17567 2.8335 16.9999C2.8335 24.8242 9.17591 31.1666 17.0002 31.1666C24.8244 31.1666 31.1668 24.8242 31.1668 16.9999C31.1668 9.17567 24.8244 2.83325 17.0002 2.83325Z" stroke="#645E5E" stroke-width="1.5" stroke-linecap="round" stroke-linejoin="round"/>
<path id="Vector_2" d="M6.05078 25.9902C6.05078 25.9902 9.20853 21.9583 17.0002 21.9583C24.7919 21.9583 27.951 25.9902 27.951 25.9902M17.0002 17C18.1274 17 19.2084 16.5522 20.0054 15.7552C20.8024 14.9582 21.2502 13.8772 21.2502 12.75C21.2502 11.6228 20.8024 10.5418 20.0054 9.7448C19.2084 8.94777 18.1274 8.5 17.0002 8.5C15.873 8.5 14.792 8.94777 13.995 9.7448C13.198 10.5418 12.7502 11.6228 12.7502 12.75C12.7502 13.8772 13.198 14.9582 13.995 15.7552C14.792 16.5522 15.873 17 17.0002 17Z" stroke="#645E5E" stroke-width="1.5" stroke-linecap="round" stroke-linejoin="round"/>
</g>
</g>
</svg>
