<svg width="22" height="22" viewBox="0 0 22 22" fill="none" xmlns="http://www.w3.org/2000/svg">
<g id="&#237;&#149;&#152;&#237;&#138;&#184;/&#235;&#185;&#132;&#237;&#153;&#156;&#236;&#132;&#177;&#237;&#153;&#148;" clip-path="url(#clip0_5135_5507)">
<path id="Vector" d="M10.9998 0.33667C5.10264 0.33667 0.336426 5.10289 0.336426 11.0001C0.336426 16.8973 5.10264 21.6635 10.9998 21.6635C16.897 21.6635 21.6632 16.8973 21.6632 11.0001C21.6632 5.10289 16.8835 0.33667 10.9998 0.33667ZM14.8101 12.9793C13.8272 14.5949 12.3193 15.5643 10.9998 15.5374C9.69383 15.5509 8.17241 14.5949 7.18955 12.9793C5.91048 10.8654 6.04512 8.42847 7.49922 7.55332C8.49554 6.94744 9.84193 7.23018 10.9998 8.14573C12.1577 7.23018 13.5041 6.9609 14.5004 7.55332C15.9545 8.42847 16.0892 10.8654 14.8101 12.9793Z" fill="#797979"/>
<path id="Vector_2" d="M10.9998 2.3562C6.22009 2.3562 2.35596 6.22034 2.35596 11C2.35596 15.7797 6.22009 19.6438 10.9998 19.6438C15.7795 19.6438 19.6436 15.7797 19.6436 11C19.6436 6.22034 15.766 2.3562 10.9998 2.3562ZM14.8101 12.9792C13.8272 14.5949 12.3192 15.5643 10.9998 15.5373C9.69378 15.5508 8.17236 14.5949 7.18949 12.9792C5.91042 10.8654 6.04506 8.42842 7.49916 7.55326C8.49549 6.94739 9.84188 7.23013 10.9998 8.14567C12.1577 7.23013 13.5041 6.96085 14.5004 7.55326C15.9545 8.42842 16.0891 10.8654 14.8101 12.9792Z" fill="#BCBCBC"/>
<path id="Vector_3" d="M15.8738 10.0442C15.8065 8.81894 15.241 7.79568 14.312 7.2302C13.8273 6.94746 13.2753 6.78589 12.6963 6.78589C12.1174 6.78589 11.5519 6.93399 10.9864 7.20327C10.4209 6.93399 9.84197 6.78589 9.27648 6.78589C8.711 6.78589 8.13205 6.93399 7.66082 7.2302C6.73181 7.78222 6.16633 8.80547 6.09901 10.0442C6.04515 11.0809 6.34136 12.2118 6.94723 13.2082C7.91663 14.7969 9.45152 15.7932 10.9595 15.7932H11.0133C12.5213 15.7932 14.0562 14.8104 15.0256 13.2082C15.6314 12.2118 15.9276 11.0809 15.8738 10.0442ZM13.8004 12.4542C13.0868 13.639 11.9693 14.3526 10.9999 14.3391C10.0305 14.3526 8.91296 13.639 8.19937 12.4542C7.2569 10.8924 7.35115 9.11514 8.42826 8.45541C9.15531 8.0111 10.1516 8.21306 10.9999 8.88626C11.8616 8.21306 12.8444 8.0111 13.5715 8.45541C14.6351 9.10168 14.7428 10.8924 13.8004 12.4542Z" fill="#797979"/>
<path id="Vector_4" d="M10.9998 21.6635C16.8891 21.6635 21.6632 16.8893 21.6632 11.0001C21.6632 5.11084 16.8891 0.33667 10.9998 0.33667C5.11059 0.33667 0.336426 5.11084 0.336426 11.0001C0.336426 16.8893 5.11059 21.6635 10.9998 21.6635Z" stroke="black" stroke-width="0.5" stroke-miterlimit="10"/>
<path id="Vector_5" d="M10.9998 19.6438C15.7736 19.6438 19.6436 15.7739 19.6436 11C19.6436 6.22617 15.7736 2.3562 10.9998 2.3562C6.22593 2.3562 2.35596 6.22617 2.35596 11C2.35596 15.7739 6.22593 19.6438 10.9998 19.6438Z" stroke="black" stroke-width="0.5" stroke-miterlimit="10"/>
<path id="Vector_6" d="M10.9731 15.7796C9.46519 15.7796 7.9303 14.7967 6.9609 13.1945C6.35503 12.1982 6.05882 11.0672 6.11268 10.0305C6.18 8.80526 6.74548 7.78201 7.67449 7.21653C8.15919 6.93378 8.71121 6.77222 9.29016 6.77222C9.8691 6.77222 10.4346 6.92032 11.0001 7.1896C11.5656 6.92032 12.1445 6.77222 12.71 6.77222C13.2755 6.77222 13.8544 6.92032 14.3257 7.21653C15.2547 7.76854 15.8201 8.7918 15.8875 10.0305C15.9413 11.0672 15.6451 12.1982 15.0392 13.1945C14.0698 14.7832 12.535 15.7796 11.027 15.7796H10.9731Z" stroke="black" stroke-width="0.5" stroke-miterlimit="10"/>
<path id="Vector_7" d="M13.5714 8.46869C12.8443 8.02438 11.848 8.22634 10.9998 8.89953C10.1381 8.22634 9.15523 8.02438 8.42818 8.46869C7.36453 9.11495 7.25682 10.9057 8.19929 12.4675C8.91288 13.6523 10.0304 14.3659 10.9998 14.3524C11.9692 14.3659 13.0867 13.6523 13.8003 12.4675C14.7427 10.9057 14.6485 9.12842 13.5714 8.46869Z" stroke="black" stroke-width="0.5" stroke-miterlimit="10"/>
</g>
<defs>
<clipPath id="clip0_5135_5507">
<rect width="22" height="22" fill="white"/>
</clipPath>
</defs>
</svg>
